# xmcd CD database file
#
# Track frame offsets:
#	182
#	12867
#	25452
#	38737
#	51775
#	64452
#	77707
#	93205
#	108112
#	122277
#	136285
#	150170
#	164987
#	177967
#	190937
#	203442
#	218210
#	229632
#	242870
#	255062
#	267005
#	280560
#	294480
#	307532
#	319247
#
# Disc length: 4411 seconds
#
# Revision: 1
# Processed by: cddbd v1.5PL3 Copyright (c) Steve Scherf et al.
# Submitted via: CDex 1.50
#
DISCID=42113919
DTITLE=Fletcher Hendersom - The Classic Tracks (1926-1937)
DYEAR=1996
DGENRE=Jazz
TTITLE0=Henderson Stomp
TTITLE1=Rocky Mountain Blues
TTITLE2=Swamp Blues
TTITLE3=Off To Buffalo
TTITLE4=St.Louis Shuffle
TTITLE5=Hop Off
TTITLE6=My Gal Sal
TTITLE7=Hot And Anxious
TTITLE8=Comin' And Going
TTITLE9=Just Blues
TTITLE10=Sugar Foot Stomp
TTITLE11=Singin' The Blues
TTITLE12=Yeah Man!
TTITLE13=King Porter Stomp
TTITLE14=Queer Notions
TTITLE15=Hocus Pocus
TTITLE16=Limehouse Blues
TTITLE17=Shanghai Shuffle
TTITLE18=Big John's Special
TTITLE19=Wrappin' It Up
TTITLE20=Christopher Columbus
TTITLE21=Blue Lou
TTITLE22=Stealin' Apples
TTITLE23=Jangled Nerves
TTITLE24=Rhythm Of The Tambourine
EXTD=YEAR: 1996
EXTT0=
EXTT1=
EXTT2=
EXTT3=
EXTT4=
EXTT5=
EXTT6=
EXTT7=
EXTT8=
EXTT9=
EXTT10=
EXTT11=
EXTT12=
EXTT13=
EXTT14=
EXTT15=
EXTT16=
EXTT17=
EXTT18=
EXTT19=
EXTT20=
EXTT21=
EXTT22=
EXTT23=
EXTT24=
PLAYORDER=
